<svg width="514" height="263" viewBox="0 0 514 263" fill="none" xmlns="http://www.w3.org/2000/svg">
<path d="M127.299 193.306C117.086 168.277 122.502 139.882 139.021 112.299C155.54 84.9485 183.277 58.8358 218.21 43.4003C253.22 28.0422 288.888 27.3459 318.947 38.023C348.967 48.5842 373.339 69.0487 385.06 93.5753C396.666 118.141 393.107 142.396 377.014 165.492C361.501 187.658 334.382 209.864 299.643 225.918C298.482 226.46 296.471 226.073 295.31 226.576C258.907 242.824 223.781 246.228 193.258 239.69C187.764 238.53 182.039 237.369 177.01 235.512C176.391 235.28 174.882 236.905 174.263 236.673C152.251 228.162 135.384 213.113 127.299 193.306Z" fill="#E7F6FF"/>
<path d="M262.002 90.3645C262.002 90.3645 269.081 91.525 273.994 84.5617C278.907 77.5983 276.47 71.5634 269.584 68.7006C262.698 65.8379 259.719 57.4432 263.781 49.2419C267.843 41.0405 255.58 41.3113 255.58 41.3113V74.1166L262.002 90.3645Z" fill="#3CB4E5"/>
<path d="M189.544 61.9694C185.637 60.1512 181.188 59.803 177.048 60.9249C179.215 59.7256 181.845 58.9906 184.283 59.2614C186.758 59.5709 189.08 60.6154 190.898 62.3176" fill="#3CB4E5"/>
<path d="M188.847 61.7757C185.791 61.1568 182.619 61.1955 179.602 61.9305C176.546 62.6268 173.721 63.9808 171.246 65.9151C174.921 66.7662 178.364 68.5457 181.188 71.0602C182.464 69.4741 183.896 68.0428 185.482 66.7662C187.107 65.4509 189.041 64.3677 191.13 64.0969C190.434 63.0524 190.047 62.0079 188.847 61.7757Z" fill="#3CB4E5"/>
<path d="M233.22 53.8453C233.22 53.8453 229.197 59.0292 219.41 62.8977C211.286 66.0699 203.858 66.6115 199.293 66.3794C198.326 66.3407 197.398 65.9152 196.74 65.2575C196.044 64.5612 195.657 63.6714 195.579 62.7043C195.502 61.7758 195.773 60.8474 196.353 60.1124C196.895 59.3773 197.707 58.8358 198.636 58.6036C202.117 57.7912 207.843 56.2438 213.336 53.884C222.001 50.1315 225.096 41.2339 225.096 41.2339C225.909 37.2493 225.638 33.226 229.893 32.0654C228.849 36.1661 233.22 53.8453 233.22 53.8453Z" fill="#3CB4E5"/>
<path d="M195.502 60.9245L190.124 61.234C189.583 61.2727 189.157 61.7369 189.196 62.2785L189.312 63.942C189.351 64.4836 189.815 64.9091 190.356 64.8705L195.695 64.561C196.237 64.5223 196.662 64.0581 196.623 63.5165L196.507 61.853C196.507 61.2727 196.043 60.8858 195.502 60.9245Z" fill="#0C0B31"/>
<path d="M240.764 59.7256C239.758 64.3291 249.739 68.9714 247.882 73.3428C246.025 77.6756 243.201 81.7376 239.294 84.3682C235.077 87.2309 219.332 89.3199 214.38 90.5579C209.351 91.8345 205.018 92.1826 199.718 95.3549C196.237 86.4185 191.672 79.6873 184.244 74.5034C187.494 71.1378 192.213 69.629 196.856 68.8553C201.498 68.0816 206.217 67.8882 210.705 66.5342C217.011 64.5999 222.427 60.4606 225.947 54.8899C231.015 56.2052 235.696 58.449 240.764 59.7256Z" fill="#3CB4E5"/>
<path d="M284.44 106.69C290.359 103.943 292.254 95.4321 288.656 87.6951C285.059 79.958 277.322 75.9347 271.364 78.72C265.445 81.4667 263.55 89.9775 267.147 97.7146C270.784 105.413 278.521 109.436 284.44 106.69Z" fill="#3CB4E5"/>
<path d="M236.895 98.8401C236.702 94.9149 235.038 91.2184 232.214 88.4365C229.39 85.6545 225.638 84.0159 221.653 83.7872C218.674 83.6348 215.734 84.3208 213.103 85.7308C210.512 87.1408 208.345 89.2368 206.875 91.79C206.101 93.1619 205.25 94.5338 204.322 95.7914C196.43 106.767 186.797 115.189 174.379 121.324L174.418 121.362C171.323 123.153 168.77 125.745 166.99 128.832C165.25 131.918 164.36 135.424 164.476 138.968C164.631 144.075 166.758 148.915 170.433 152.497C174.109 156.079 179.06 158.137 184.244 158.251C187.881 158.328 191.478 157.413 194.651 155.622C197.823 153.831 200.415 151.239 202.194 148.114C206.101 141.788 209.622 135.729 213.955 129.708C218.752 123.001 222.62 117.589 228.81 113.245C229.467 112.864 230.086 112.483 230.667 112.026L230.705 111.988C232.717 110.425 234.342 108.443 235.386 106.157C236.547 103.87 237.05 101.355 236.895 98.8401Z" fill="#3CB4E5"/>
<path d="M183.316 156.439C192.639 156.439 200.221 150.714 200.221 143.673C200.221 136.632 192.639 130.907 183.316 130.907C173.992 130.907 166.41 136.632 166.41 143.673C166.449 150.714 173.992 156.439 183.316 156.439Z" fill="#0C0B31"/>
<path d="M183.316 156.439C192.639 156.439 200.221 150.714 200.221 143.673C200.221 136.632 192.639 130.907 183.316 130.907C173.992 130.907 166.41 136.632 166.41 143.673C166.449 150.714 173.992 156.439 183.316 156.439Z" fill="#0C0B31"/>
<path d="M205.018 137.328C188.848 159.186 168.267 163.518 168.267 163.518C168.267 163.518 149.969 155.433 159.292 151.371C168.615 147.309 183.122 123.247 183.122 123.247C187.842 116.206 198.945 109.668 198.945 109.668L216.431 118.875C216.431 118.875 211.595 129.088 205.018 137.328Z" fill="#F58981"/>
<path d="M236.895 99.0683C236.701 95.0837 235.038 91.3312 232.214 88.5072C229.39 85.6831 225.637 84.0197 221.653 83.7875C218.674 83.6328 215.734 84.3291 213.103 85.7605C210.511 87.1919 208.345 89.3196 206.875 91.9115C206.101 93.3042 205.25 94.6968 204.322 95.9735C196.43 107.115 186.797 115.664 174.379 121.893L174.418 121.931C172.213 123.208 170.278 124.91 168.731 126.922C170.704 128.817 172.677 130.752 174.65 132.686C177.396 131.487 180.337 130.868 183.315 130.868C192.639 130.868 200.221 136.593 200.221 143.634C200.221 147.193 198.287 150.443 195.153 152.764C195.888 153.46 195.098 154.04 195.872 154.737C197.806 153.15 201.033 151.294 202.233 149.089C206.14 142.667 209.66 136.516 213.993 130.403C218.79 123.634 222.62 118.14 228.848 113.691C229.506 113.305 230.125 112.918 230.705 112.453L230.744 112.415C232.755 110.829 234.38 108.817 235.425 106.496C236.547 104.175 237.049 101.622 236.895 99.0683Z" fill="#3CB4E5"/>
<path d="M230.783 220.386H280.532C280.764 220.386 281.035 220.115 281.267 220.115C286.335 194.97 283.433 168.896 273.066 145.491C259.216 149.128 244.4 149.128 230.318 146.381C234.032 171.256 233.8 195.357 230.783 220.386Z" fill="#3CB4E5"/>
<path d="M228.152 80.0353C217.63 82.8207 213.104 85.7608 213.104 85.7608L220.067 103.479C220.841 116.167 220.222 128.856 218.249 141.429L216.817 150.598C236.702 155.665 258.791 154.427 278.172 147.619L278.985 147.348L278.134 141.739C276.277 129.204 274.652 116.786 275.503 104.175L277.283 77.9463L228.152 80.0353Z" fill="#3CB4E5"/>
<path d="M228.152 80.0351L249.545 106.419L264.671 75.625L228.152 80.0351Z" fill="#3CB4E5"/>
<path d="M313.724 133.228L313.647 133.15L313.569 133.073C300.532 119.843 294.343 105.142 289.352 89.4358C284.633 93.7299 276.973 85.7994 276.199 93.962C274.652 109.978 272.872 126.264 278.327 144.988C278.404 145.259 278.482 145.568 278.559 145.839V145.878C280.764 152.377 288.501 157.213 297.747 157.213C308.695 157.213 317.554 150.443 317.554 142.125C317.515 138.798 316.123 135.742 313.724 133.228Z" fill="#3CB4E5"/>
<path d="M299.372 155.201C308.076 154.002 314.421 147.812 313.531 141.39C312.641 134.969 304.865 130.713 296.122 131.913C287.418 133.112 281.074 139.301 281.964 145.723C282.853 152.184 290.668 156.439 299.372 155.201Z" fill="#0C0B31"/>
<path d="M279.333 133.344C288.927 158.799 307.534 168.586 307.534 168.586C307.534 168.586 327.303 165.839 319.449 159.379C311.596 152.919 304.246 125.8 304.246 125.8C301.615 117.715 292.718 108.392 292.718 108.392L292.215 108.508C281.19 110.829 274.884 122.628 279.217 133.034C279.217 133.15 279.294 133.228 279.333 133.344Z" fill="#F58981"/>
<path d="M281.964 145.762C281.074 139.34 287.418 133.15 296.122 131.951C304.827 130.752 312.641 134.969 313.531 141.429C313.57 141.584 313.57 141.739 313.57 141.893L317.438 141.081C317.167 138.179 315.813 135.471 313.686 133.228L313.608 133.15L313.531 133.073C300.494 119.843 294.304 105.142 289.314 89.4358C284.594 93.7299 276.934 85.7994 276.161 93.962C274.613 109.978 272.834 126.264 278.288 144.988C278.366 145.259 278.443 145.568 278.521 145.839V145.878C278.907 147 279.41 148.044 280.107 149.011L282.815 148.392C282.389 147.58 282.118 146.69 281.964 145.762Z" fill="#3CB4E5"/>
<path d="M204.167 158.799C204.167 154.389 205.908 150.172 209.042 147.038C212.175 143.905 216.392 142.164 220.802 142.164C230.009 142.164 237.901 150.636 237.901 159.805C237.901 168.973 230.009 175.395 220.802 175.395C218.597 175.395 216.431 174.969 214.419 174.118C212.407 173.267 210.551 172.068 209.003 170.52C207.456 168.973 206.218 167.155 205.405 165.143C204.632 163.132 204.167 160.965 204.167 158.799Z" fill="#3CB4E5"/>
<path d="M207.224 149.166C199.835 159.418 195.038 170.056 191.556 182.204C188.074 194.351 186.217 206.924 185.018 219.496C185.211 219.458 185.328 219.69 185.521 219.651H228.346C231.363 202.204 234.497 185.724 237.514 168.238C238.288 163.789 238.984 158.876 236.624 155.046C234.884 152.222 231.789 150.481 228.655 149.321C221.847 146.806 214.226 147.425 207.224 149.166Z" fill="#3CB4E5"/>
<path d="M289.352 151.797C289.352 151.797 292.447 156.71 291.325 161.004C290.203 165.298 288.191 174.892 295.194 177.987C299.952 180.076 302.35 181.159 305.136 183.248C307.921 185.337 310.745 179.844 310.242 178.877C309.623 177.677 304.904 164.911 300.068 159.457C294.188 152.803 289.352 151.797 289.352 151.797Z" fill="#F58981"/>
<path d="M278.211 159.843H346.259C347.883 159.843 349.431 160.501 350.591 161.623C351.752 162.783 352.371 164.331 352.371 165.917V167.077C352.371 168.702 351.713 170.25 350.591 171.372C349.431 172.532 347.883 173.151 346.259 173.151H278.211V159.843Z" fill="#0C0B31"/>
<path d="M188.461 153.692C188.461 153.692 182.229 153.587 183.35 157.881C184.472 162.175 188.112 174.892 181.11 177.987C176.352 180.076 172.87 183.364 170.085 185.453C167.3 187.504 164.476 182.049 164.978 181.082C165.597 179.882 171.4 164.911 176.236 159.457C182.155 152.803 188.461 153.692 188.461 153.692Z" fill="#F58981"/>
<path d="M198.132 173.151H131.516C129.891 173.151 128.343 172.493 127.183 171.372C126.022 170.211 125.403 168.664 125.403 167.077V165.917C125.403 164.292 126.061 162.745 127.183 161.623C128.343 160.462 129.891 159.843 131.516 159.843H198.171L198.132 173.151Z" fill="#0C0B31"/>
<path d="M278.211 160.513H196.778V173.316C196.778 174.501 197.203 175.648 197.938 176.565C198.712 177.482 199.757 178.132 200.917 178.361L203.509 178.897C207.029 179.623 210.202 181.534 212.445 184.285C214.728 187.037 215.966 190.477 215.966 193.993V218.607H258.984V193.993C258.984 190.439 260.222 186.999 262.504 184.285C264.787 181.534 267.92 179.623 271.441 178.897L274.033 178.361C275.193 178.132 276.276 177.482 277.011 176.565C277.785 175.648 278.172 174.501 278.172 173.316L278.211 160.513Z" fill="white"/>
<path d="M237.475 211.14C233.336 211.14 229.39 209.515 226.489 206.614C223.587 203.712 221.924 199.766 221.924 195.666V184.06C221.924 179.959 223.549 176.014 226.489 173.112C229.39 170.211 233.336 168.586 237.475 168.586C241.576 168.586 245.561 170.211 248.462 173.112C251.363 176.014 253.027 179.959 253.027 184.06V195.666C253.027 199.766 251.363 203.712 248.462 206.614C245.561 209.515 241.615 211.14 237.475 211.14ZM237.475 173.422C234.651 173.422 231.943 174.543 229.932 176.555C227.92 178.567 226.798 181.236 226.798 184.06V195.666C226.798 198.49 227.92 201.198 229.932 203.171C231.943 205.144 234.651 206.266 237.475 206.304C240.299 206.304 243.007 205.182 245.019 203.171C247.031 201.159 248.153 198.49 248.153 195.666V184.06C248.153 181.236 247.031 178.528 245.019 176.555C243.007 174.582 240.299 173.46 237.475 173.422Z" fill="#3CB4E5"/>
<path d="M178.132 155.124C177.552 154.737 176.894 154.466 176.236 154.35C172.639 152.996 168.383 151.178 167.029 151.023C164.553 150.597 162.078 151.178 159.486 150.752C158.17 150.559 156.429 149.94 153.257 150.752C148.77 151.874 147.338 151.797 145.443 153.035C143.044 154.776 140.723 158.683 140.723 164.795C140.723 169.824 141.884 174.196 143.625 176.594C145.017 178.722 147.3 178.567 147.841 178.683C147.841 178.683 148.847 180.347 149.93 181.082C151.594 182.436 152.329 182.668 153.76 182.9C154.534 183.055 156.12 183.209 156.12 183.209C157.667 184.718 160.143 186.42 164.669 184.757C165.559 184.409 166.256 183.983 166.256 183.983C169.66 184.718 173.761 182.668 174.109 181.662C176.739 176.671 176.391 169.012 178.171 163.751C178.944 161.429 181.111 159.843 183.587 159.843L182.426 154.853C182.426 154.814 178.712 155.511 178.132 155.124Z" fill="#F58981"/>
<path d="M298.405 165.453L292.834 173.151L299.062 173.19L298.405 165.453Z" fill="#0C0B31"/>
<path d="M245.677 81.4278C257.205 79.919 264.671 75.625 264.671 75.625C253.336 73.2651 251.866 66.8047 255.193 62.3172C257.244 59.5318 253.491 57.6362 253.491 57.6362L244.245 58.8355L242.04 59.1063L233.916 60.3055C233.916 60.3055 231.015 62.588 233.723 64.7157C236.663 67.0368 238.52 71.4469 237.359 75.9731C236.586 79.1066 228.191 79.9964 228.191 79.9964L228.423 80.1898C228.384 80.2285 234.148 82.9365 245.677 81.4278Z" fill="#F58981"/>
<path d="M230.087 30.0149C229.197 32.0652 228.5 36.7848 228.075 38.1388C227.495 39.9183 226.489 41.1176 225.367 46.3401C224.245 51.5626 226.102 58.7968 229.235 62.6267C232.369 66.4565 238.713 66.6886 242.737 65.5281C246.721 64.3675 253.066 60.1121 256.586 55.6246C260.106 51.1371 265.213 34.9279 265.213 34.9279C265.213 34.9279 240.686 26.6105 240.299 26.5719C239.835 26.5332 230.087 30.0149 230.087 30.0149Z" fill="#F58981"/>
<path d="M248.849 29.783C254.381 32.9165 252.563 38.5646 251.209 43.7484C249.855 48.9323 250.435 55.1993 260.996 55.1993C262.737 55.1993 262.428 52.0658 262.428 52.0658C259.333 51.4081 263.279 46.4564 263.047 45.3732C262.815 44.3287 261.228 33.3033 257.515 31.0209C253.723 28.7385 248.849 29.783 248.849 29.783Z" fill="#3CB4E5"/>
<path d="M242.814 41.311C244.096 41.311 245.135 40.2717 245.135 38.9898C245.135 37.7079 244.096 36.6687 242.814 36.6687C241.532 36.6687 240.493 37.7079 240.493 38.9898C240.493 40.2717 241.532 41.311 242.814 41.311Z" fill="#0C0B31"/>
<path d="M246.517 40.8212C246.683 39.6362 245.085 38.4335 242.947 38.1348C240.81 37.8362 238.943 38.5547 238.778 39.7397C238.612 40.9246 240.211 42.1274 242.348 42.426C244.485 42.7247 246.352 42.0062 246.517 40.8212Z" fill="#F58981"/>
<path d="M231.054 39.8025C232.25 39.8025 233.22 38.8326 233.22 37.6361C233.22 36.4397 232.25 35.4697 231.054 35.4697C229.857 35.4697 228.887 36.4397 228.887 37.6361C228.887 38.8326 229.857 39.8025 231.054 39.8025Z" fill="#0C0B31"/>
<path d="M234.38 38.7579C234.342 39.8797 234.613 44.6767 226.218 43.168C226.991 40.5374 227.688 39.4929 228.113 38.1776C228.191 37.9455 228.268 37.5973 228.384 37.1718C228.384 37.1718 228.384 37.1718 228.384 37.1331C228.732 37.017 229.661 36.9396 230.473 36.9783C232.407 37.017 234.458 37.636 234.38 38.7579Z" fill="#B55B6B"/>
<path d="M235.773 33.6514C233.723 35.8178 232.33 38.0228 230.473 39.0286C229.196 39.725 229.545 41.5045 232.562 42.7038C236.315 44.2125 237.707 36.1272 237.707 36.1272L235.773 33.6514Z" fill="#F58981"/>
<path d="M236.586 23.6319C239.294 21.04 246.141 16.8233 256.044 18.951C265.716 21.04 271.789 29.8603 271.132 39.1061C270.667 45.2957 264.826 51.3307 264.013 51.6015C263.046 51.9496 261.963 51.3307 261.035 46.9979C260.648 45.141 260.687 45.141 260.687 45.141C260.687 45.141 257.166 35.8952 254.42 31.6398C251.673 27.3844 234.69 24.1735 234.69 24.1735" fill="#3CB4E5"/>
<path d="M261.692 48.9709C260.803 48.4293 258.907 42.7812 255.658 38.2937C252.408 33.8062 247.92 29.3961 240.764 28.8545C233.529 28.3129 231.75 30.2472 230.435 31.4077C229.119 32.5683 228.616 35.4697 228.616 35.4697C228.616 35.4697 228.578 34.3865 227.727 32.2975C224.98 25.5275 228.462 22.7809 231.363 21.8524C233.762 21.1174 238.443 19.9181 245.87 22.8195C253.298 25.721 259.255 35.3149 259.255 35.3149C259.255 35.3149 262.582 49.5125 261.692 48.9709Z" fill="#3CB4E5"/>
<path d="M254.613 36.9014C254.265 36.4372 252.873 34.8898 252.524 34.5416C248.153 30.2089 243.201 29.0483 240.764 28.8549C233.53 28.2746 231.75 30.2475 230.435 31.4081C230.358 31.4855 230.28 31.5628 230.242 31.6402C229.584 32.4139 229.004 34.0387 228.694 35.354C228.462 34.8898 228.269 34.4256 228.191 34.2708C227.417 32.53 226.605 29.4351 226.76 27.8877C226.953 26.2629 227.417 25.1797 228.462 24.3674C229.932 23.3615 232.214 22.1623 235.619 22.3944C242.543 22.9747 250.551 27.3848 254.613 36.9014Z" fill="#0C0B31"/>
<path d="M241.614 66.9209C239.254 67.7333 236.701 67.9267 234.341 67.1917C229.042 65.5669 227.146 60.7699 226.643 58.913C226.527 58.4101 226.488 57.5977 226.488 57.5977C226.798 58.4101 228.771 63.826 233.684 65.1027C237.204 65.9924 241.885 64.8706 246.295 61.7757C251.363 58.178 254.419 52.2978 255.386 44.2512L257.823 44.5607C256.779 53.3423 253.375 59.8028 247.688 63.7874C246.489 64.6384 244.284 65.9924 241.614 66.9209Z" fill="#0C0B31"/>
<path d="M255.696 40.3054C256.625 42.2397 259.835 46.8433 260.764 49.4352C262.621 54.5417 261.963 58.1007 261.731 62.3561C261.422 67.7334 258.984 72.8399 255.464 76.9018C252.137 80.7317 247.882 83.6331 243.317 85.8769C242.698 86.1863 242.001 86.2637 241.344 86.109L241.189 86.0703C240.802 85.9542 240.415 85.7221 240.183 85.374C239.951 85.0258 239.796 84.6389 239.835 84.2134C239.99 80.3448 241.808 76.9405 244.09 73.6523C246.605 70.0545 249.545 66.6502 251.209 62.5495C253.568 56.6694 251.982 45.4893 255.696 40.3054Z" fill="#3CB4E5"/>
<path d="M236.546 90.3645C232.949 90.3645 229.428 91.6411 226.682 94.0009C227.03 94.4652 227.378 94.9294 227.765 95.3936C229.274 94.233 230.937 93.3433 232.755 92.7243C231.169 93.7301 229.776 94.9681 228.539 96.3994C230.009 98.3337 231.595 100.152 233.297 101.893C236.005 98.7206 237.668 94.7746 238.055 90.5966C237.552 90.5579 236.972 90.3645 236.546 90.3645Z" fill="#3CB4E5"/>
<path d="M239.216 84.9873L236.16 89.3974C235.851 89.8616 235.967 90.4419 236.431 90.7514L237.824 91.7185C238.288 92.028 238.868 91.912 239.178 91.4477L242.234 87.0376C242.543 86.5734 242.427 85.9931 241.963 85.6836L240.57 84.7165C240.145 84.4457 239.526 84.5617 239.216 84.9873Z" fill="#0C0B31"/>
<path d="M335.388 183.171H335.311L295.658 181.662C290.784 181.469 286.181 179.534 282.66 176.207L280.184 173.886C279.836 173.538 279.604 173.074 279.604 172.571C279.604 172.068 279.759 171.565 280.107 171.217C280.262 171.024 280.494 170.908 280.726 170.791C280.958 170.675 281.19 170.637 281.461 170.637C281.693 170.637 281.964 170.675 282.196 170.753C282.428 170.83 282.66 170.985 282.815 171.14L285.291 173.461C288.153 176.169 291.906 177.755 295.852 177.871L335.543 179.38C335.775 179.38 336.046 179.457 336.278 179.534C336.51 179.65 336.704 179.805 336.897 179.96C337.052 180.153 337.207 180.347 337.284 180.579C337.361 180.811 337.4 181.043 337.4 181.314C337.361 181.817 337.168 182.281 336.82 182.591C336.356 182.977 335.891 183.171 335.388 183.171Z" fill="#0C0B31"/>
<path d="M315.001 184.679C316.355 183.519 318.908 181.971 320.185 179.805C322.622 175.627 320.726 163.867 320.726 163.867L301.771 150.365C301.771 150.365 295.233 157.948 297.244 162.087C299.798 167.31 300.533 176.826 300.455 179.882C300.378 182.939 300.881 190.676 302.892 191.682C304.904 192.687 306.297 192.455 307.457 190.521C308.657 188.587 308.85 187.155 308.85 187.155C309.082 185.105 309.082 185.105 309.082 185.105C309.082 185.105 312.873 186.459 315.001 184.679Z" fill="#F58981"/>
<path d="M298.211 155.124C298.791 154.737 299.449 154.466 300.107 154.35C303.704 152.996 307.96 151.178 309.314 151.023C311.79 150.597 314.266 151.178 316.857 150.752C318.173 150.559 319.914 149.94 323.086 150.752C327.573 151.874 329.005 151.797 330.9 153.035C333.299 154.776 335.62 158.683 335.62 164.795C335.62 169.824 334.459 174.196 332.719 176.594C331.326 178.722 326.838 178.567 326.297 178.683C326.297 178.683 325.523 179.998 323.473 182.745C321.848 184.911 317.631 184.022 317.244 182.939C316.471 183.093 302.544 182.668 302.196 181.662C299.565 176.671 299.913 169.012 298.134 163.751C297.36 161.429 295.194 159.843 292.718 159.843L293.878 154.853C293.917 154.814 297.631 155.511 298.211 155.124Z" fill="#F58981"/>
<path d="M234.612 29.1639C229.235 28.0033 225.715 30.6726 225.057 37.6747C224.4 44.6768 220.802 48.3132 220.802 48.3132L224.013 48.0424L228.307 37.1331C228.345 37.0944 228.848 31.0982 234.612 29.1639Z" fill="#3CB4E5"/>
<path d="M228.616 48.4293C228.346 47.0366 229.042 45.76 230.203 45.6053C237.669 44.7155 240.841 42.7812 242.891 44.1352C244.826 45.5279 241.653 51.3694 235.038 52.7234C230.667 53.5745 229.197 51.2533 228.616 48.4293Z" fill="white"/>
<path d="M262.001 90.3645C262.001 90.3645 269.08 91.525 273.993 84.5617C278.906 77.5983 276.469 71.5634 269.583 68.7006C262.697 65.8379 259.718 57.4432 263.78 49.2419C267.842 41.0405 255.579 41.3113 255.579 41.3113V74.1166L262.001 90.3645Z" fill="#0C0B31"/>
<path d="M189.543 61.9694C185.636 60.1512 181.187 59.803 177.048 60.9249C179.214 59.7256 181.845 58.9906 184.282 59.2614C186.758 59.5709 189.079 60.6154 190.897 62.3176" fill="#0C0B31"/>
<path d="M188.847 61.7757C185.791 61.1568 182.619 61.1955 179.601 61.9305C176.545 62.6268 173.721 63.9808 171.245 65.9151C174.92 66.7662 178.363 68.5457 181.187 71.0602C182.464 69.4741 183.895 68.0428 185.481 66.7662C187.106 65.4509 189.04 64.3677 191.129 64.0969C190.433 63.0524 190.046 62.0079 188.847 61.7757Z" fill="#0C0B31"/>
<path d="M233.219 53.8453C233.219 53.8453 229.196 59.0292 219.408 62.8977C211.284 66.0699 203.857 66.6115 199.292 66.3794C198.325 66.3407 197.396 65.9152 196.738 65.2575C196.042 64.5612 195.655 63.6714 195.578 62.7043C195.501 61.7758 195.771 60.8474 196.352 60.1124C196.893 59.3773 197.706 58.8358 198.634 58.6036C202.116 57.7912 207.841 56.2438 213.335 53.884C222 50.1315 225.095 41.2339 225.095 41.2339C225.907 37.2493 225.636 33.226 229.892 32.0654C228.847 36.1661 233.219 53.8453 233.219 53.8453Z" fill="#0C0B31"/>
<path d="M195.501 60.9245L190.123 61.234C189.582 61.2727 189.156 61.7369 189.195 62.2785L189.311 63.942C189.35 64.4836 189.814 64.9091 190.355 64.8705L195.694 64.561C196.236 64.5223 196.661 64.0581 196.622 63.5165L196.506 61.853C196.506 61.2727 196.042 60.8858 195.501 60.9245Z" fill="#3CB4E5"/>
<path d="M240.763 59.7256C239.757 64.3291 249.738 68.9714 247.881 73.3428C246.024 77.6756 243.2 81.7376 239.293 84.3682C235.076 87.2309 219.331 89.3199 214.379 90.5579C209.35 91.8345 205.017 92.1826 199.717 95.3549C196.236 86.4185 191.671 79.6873 184.243 74.5034C187.493 71.1378 192.212 69.629 196.855 68.8553C201.497 68.0816 206.216 67.8882 210.704 66.5342C217.01 64.5999 222.426 60.4606 225.946 54.8899C231.014 56.2052 235.695 58.449 240.763 59.7256Z" fill="#0C0B31"/>
<path d="M284.439 106.69C290.358 103.943 292.253 95.4321 288.655 87.6951C285.058 79.958 277.321 75.9347 271.363 78.72C265.444 81.4667 263.549 89.9775 267.146 97.7146C270.783 105.413 278.52 109.436 284.439 106.69Z" fill="white"/>
<path d="M236.894 98.8401C236.701 94.9149 235.037 91.2184 232.213 88.4365C229.389 85.6545 225.637 84.0159 221.652 83.7872C218.673 83.6348 215.733 84.3208 213.103 85.7308C210.511 87.1408 208.344 89.2368 206.874 91.79C206.1 93.1619 205.249 94.5338 204.321 95.7914C196.429 106.767 186.796 115.189 174.378 121.324L174.417 121.362C171.322 123.153 168.769 125.745 166.989 128.832C165.249 131.918 164.359 135.424 164.475 138.968C164.63 144.075 166.757 148.915 170.432 152.497C174.108 156.079 179.059 158.137 184.243 158.251C187.88 158.328 191.477 157.413 194.65 155.622C197.822 153.831 200.414 151.239 202.193 148.114C206.1 141.788 209.621 135.729 213.954 129.708C218.751 123.001 222.619 117.59 228.809 113.245C229.466 112.864 230.085 112.483 230.666 112.026L230.704 111.988C232.716 110.425 234.341 108.443 235.385 106.157C236.546 103.87 237.049 101.355 236.894 98.8401Z" fill="white"/>
<path d="M183.315 156.439C192.638 156.439 200.22 150.714 200.22 143.673C200.22 136.632 192.638 130.907 183.315 130.907C173.992 130.907 166.409 136.632 166.409 143.673C166.448 150.714 173.992 156.439 183.315 156.439Z" fill="white"/>
<path d="M236.894 99.0683C236.701 95.0837 235.037 91.3312 232.213 88.5072C229.389 85.6831 225.637 84.0197 221.652 83.7875C218.673 83.6328 215.733 84.3291 213.103 85.7605C210.511 87.1919 208.344 89.3196 206.874 91.9115C206.101 93.3042 205.25 94.6968 204.321 95.9735C196.429 107.115 186.797 115.664 174.379 121.893L174.417 121.931C172.212 123.208 170.278 124.91 168.73 126.922C170.703 128.817 172.676 130.752 174.649 132.686C177.396 131.487 180.336 130.868 183.315 130.868C192.638 130.868 200.22 136.593 200.22 143.634C200.22 147.193 198.286 150.443 195.153 152.764C195.888 153.46 195.502 153.861 196.276 154.557C198.155 153.594 201.314 150.973 202.232 149.089C206.139 142.667 209.66 136.516 213.992 130.403C218.789 123.634 222.619 118.14 228.848 113.691C229.505 113.305 230.124 112.918 230.705 112.453L230.743 112.415C232.755 110.829 234.38 108.817 235.424 106.496C236.546 104.175 237.049 101.622 236.894 99.0683Z" fill="white"/>
<path d="M230.782 220.386H280.532C280.764 220.386 281.034 220.115 281.267 220.115C286.334 194.97 283.433 168.896 273.065 145.491C259.216 149.128 244.399 149.128 230.318 146.381C234.032 171.256 233.8 195.357 230.782 220.386Z" fill="#3CB4E5"/>
<path d="M228.151 80.0353C217.629 82.8207 213.103 85.7608 213.103 85.7608L220.066 103.479C220.84 116.167 220.221 128.856 218.248 141.429L216.816 150.598C236.701 155.665 258.79 154.427 278.171 147.619L278.984 147.348L278.133 141.739C276.276 129.204 274.651 116.786 275.502 104.175L277.282 77.9463L228.151 80.0353Z" fill="white"/>
<path d="M228.151 80.0352L249.544 106.419L265.831 78.3716L228.151 80.0352Z" fill="#F58981"/>
<path d="M313.723 133.228L313.646 133.15L313.568 133.073C300.531 119.843 294.342 105.142 289.351 89.4358C284.632 93.7299 276.972 85.7994 276.198 93.962C274.651 109.978 272.871 126.264 278.326 144.988C278.403 145.259 278.481 145.568 278.558 145.839V145.878C280.763 152.377 288.5 157.213 297.746 157.213C308.694 157.213 317.553 150.443 317.553 142.125C317.514 138.798 316.122 135.742 313.723 133.228Z" fill="white"/>
<path d="M299.371 155.201C308.075 154.002 314.42 147.812 313.53 141.39C312.64 134.969 304.864 130.713 296.122 131.913C287.417 133.112 281.073 139.301 281.963 145.723C282.852 152.184 290.667 156.439 299.371 155.201Z" fill="white"/>
<path d="M298.517 154.047C307.455 153.131 314.162 147.171 313.497 140.735C312.832 134.3 305.048 129.826 296.11 130.742C287.172 131.659 280.465 137.619 281.13 144.055C281.795 150.49 289.579 154.964 298.517 154.047Z" fill="#0C0B31"/>
<path d="M204.166 158.799C204.166 154.389 205.907 150.172 209.04 147.038C212.174 143.905 216.391 142.164 220.801 142.164C230.008 142.164 237.9 150.636 237.9 159.805C237.9 168.973 230.008 175.395 220.801 175.395C218.596 175.395 216.429 174.969 214.418 174.118C212.406 173.267 210.549 172.068 209.002 170.52C207.454 168.973 206.216 167.155 205.404 165.143C204.63 163.132 204.166 160.965 204.166 158.799Z" fill="#3CB4E5"/>
<path d="M207.223 149.166C199.834 159.418 195.037 170.056 191.555 182.204C188.073 194.351 186.216 206.924 185.017 219.496C185.211 219.458 185.327 219.69 185.52 219.651L230.365 219.496C233.382 202.049 234.496 185.724 237.513 168.238C238.287 163.789 238.983 158.876 236.623 155.046C234.883 152.222 231.788 150.481 228.654 149.321C221.846 146.806 214.225 147.425 207.223 149.166Z" fill="#3CB4E5"/>
<path d="M289.352 151.797C289.352 151.797 292.446 156.71 291.325 161.004C290.203 165.298 288.191 174.892 295.193 177.987C299.951 180.076 302.35 181.159 305.135 183.248C307.921 185.337 310.745 179.844 310.242 178.877C309.623 177.677 304.903 164.911 300.067 159.457C294.187 152.803 289.352 151.797 289.352 151.797Z" fill="#F58981"/>
<path d="M278.21 159.843H346.258C347.883 159.843 349.43 160.501 350.591 161.623C351.751 162.783 352.37 164.331 352.37 165.917V167.077C352.37 168.702 351.713 170.25 350.591 171.372C349.43 172.532 347.883 173.151 346.258 173.151H278.21V159.843Z" fill="#0C0B31"/>
<path d="M187.413 151.503C187.413 151.503 180.173 157.473 184.978 161.004C186.1 165.298 188.112 174.892 181.11 177.987C176.352 180.076 172.87 183.364 170.084 185.453C167.299 187.504 164.475 182.049 164.978 181.082C165.597 179.882 171.4 164.911 176.235 159.457C182.154 152.803 187.413 151.503 187.413 151.503Z" fill="#F58981"/>
<path d="M198.131 173.151H131.515C129.89 173.151 128.343 172.493 127.182 171.372C126.022 170.211 125.403 168.664 125.403 167.077V165.917C125.403 164.292 126.06 162.745 127.182 161.623C128.343 160.462 129.89 159.843 131.515 159.843H198.17L198.131 173.151Z" fill="#0C0B31"/>
<path d="M298.404 165.453L292.833 173.151L299.062 173.19L298.404 165.453Z" fill="#0C0B31"/>
<path d="M296.896 218.645H178.132C177.319 218.645 176.507 218.8 175.772 219.109C175.037 219.419 174.34 219.883 173.76 220.425C173.18 221.005 172.716 221.663 172.406 222.436C172.097 223.171 171.942 223.984 171.942 224.796V226.73H297.786C299.526 225.918 301.267 225.144 303.008 224.293C302.892 222.823 302.273 221.469 301.267 220.425C300.068 219.303 298.521 218.645 296.896 218.645Z" fill="#0C0B31"/>
<path d="M174.031 236.596C179.679 238.801 185.675 240.58 191.942 241.896C222.465 248.395 259.758 243.714 296.161 227.466C296.702 227.234 297.244 226.963 297.786 226.731H171.942L174.031 236.596Z" fill="#0C0B31"/>
<path d="M245.676 81.4278C257.204 79.919 265.831 78.3715 265.831 78.3715C254.496 76.0117 251.865 66.8047 255.192 62.3172C257.243 59.5318 253.49 57.6362 253.49 57.6362L244.244 58.8355L242.039 59.1063L233.915 60.3055C233.915 60.3055 231.014 62.588 233.722 64.7157C236.662 67.0368 238.519 71.4469 237.358 75.9731C236.585 79.1066 228.19 79.9964 228.19 79.9964L228.422 80.1898C228.383 80.2285 234.147 82.9365 245.676 81.4278Z" fill="#F58981"/>
<path d="M230.086 30.0149C229.196 32.0652 228.499 36.7848 228.074 38.1388C227.494 39.9183 226.488 41.1176 225.366 46.3401C224.244 51.5626 226.101 58.7968 229.234 62.6267C232.368 66.4565 238.712 66.6886 242.736 65.5281C246.72 64.3675 253.065 60.1121 256.585 55.6246C260.105 51.1371 265.212 34.9279 265.212 34.9279C265.212 34.9279 240.685 26.6105 240.298 26.5719C239.834 26.5332 230.086 30.0149 230.086 30.0149Z" fill="#F58981"/>
<path d="M248.848 29.783C254.38 32.9165 252.561 38.5646 251.207 43.7484C249.853 48.9323 250.434 55.1993 260.995 55.1993C262.736 55.1993 262.426 52.0658 262.426 52.0658C259.331 51.4081 263.277 46.4564 263.045 45.3732C262.813 44.3287 261.227 33.3033 257.513 31.0209C253.722 28.7385 248.848 29.783 248.848 29.783Z" fill="#0C0B31"/>
<path d="M242.813 41.311C244.095 41.311 245.134 40.2717 245.134 38.9898C245.134 37.7079 244.095 36.6687 242.813 36.6687C241.531 36.6687 240.492 37.7079 240.492 38.9898C240.492 40.2717 241.531 41.311 242.813 41.311Z" fill="#0C0B31"/>
<path d="M246.516 40.8212C246.682 39.6362 245.084 38.4335 242.946 38.1348C240.809 37.8362 238.942 38.5547 238.777 39.7397C238.611 40.9246 240.21 42.1274 242.347 42.426C244.484 42.7247 246.351 42.0062 246.516 40.8212Z" fill="#F58981"/>
<path d="M231.053 39.8025C232.249 39.8025 233.219 38.8326 233.219 37.6361C233.219 36.4397 232.249 35.4697 231.053 35.4697C229.856 35.4697 228.886 36.4397 228.886 37.6361C228.886 38.8326 229.856 39.8025 231.053 39.8025Z" fill="#0C0B31"/>
<path d="M234.379 38.7579C234.341 39.8797 234.612 44.6767 226.217 43.168C226.991 40.5374 227.687 39.4929 228.112 38.1776C228.19 37.9455 228.267 37.5973 228.383 37.1718C228.383 37.1718 228.383 37.1718 228.383 37.1331C228.731 37.017 229.66 36.9396 230.472 36.9783C232.406 37.017 234.457 37.636 234.379 38.7579Z" fill="#B55B6B"/>
<path d="M235.772 33.6514C233.722 35.8178 232.329 38.0228 230.473 39.0286C229.196 39.725 229.544 41.5045 232.562 42.7038C236.314 44.2125 237.707 36.1272 237.707 36.1272L235.772 33.6514Z" fill="#F58981"/>
<path d="M236.585 23.6319C239.293 21.04 246.14 16.8233 256.043 18.951C265.715 21.04 271.788 29.8603 271.131 39.1061C270.666 45.2957 264.825 51.3307 264.013 51.6015C263.045 51.9496 261.962 51.3307 261.034 46.9979C260.647 45.141 260.686 45.141 260.686 45.141C260.686 45.141 257.165 35.8952 254.419 31.6398C251.672 27.3844 234.689 24.1735 234.689 24.1735" fill="#3CB4E5"/>
<path d="M261.691 48.9709C260.802 48.4293 258.906 42.7812 255.657 38.2937C252.407 33.8062 247.919 29.3961 240.763 28.8545C233.529 28.3129 231.749 30.2472 230.434 31.4077C229.118 32.5683 228.615 35.4697 228.615 35.4697C228.615 35.4697 228.577 34.3865 227.726 32.2975C224.979 25.5275 228.461 22.7809 231.362 21.8524C233.761 21.1174 238.442 19.9181 245.869 22.8195C253.297 25.721 259.254 35.3149 259.254 35.3149C259.254 35.3149 262.581 49.5125 261.691 48.9709Z" fill="#3CB4E5"/>
<path d="M254.612 36.9014C254.264 36.4372 252.871 34.8898 252.523 34.5416C248.151 30.2089 243.2 29.0483 240.763 28.8549C233.528 28.2746 231.749 30.2475 230.433 31.4081C230.356 31.4855 230.279 31.5628 230.24 31.6402C229.582 32.4139 229.002 34.0387 228.693 35.354C228.461 34.8898 228.267 34.4256 228.19 34.2708C227.416 32.53 226.604 29.4351 226.758 27.8877C226.952 26.2629 227.416 25.1797 228.461 24.3674C229.931 23.3615 232.213 22.1623 235.617 22.3944C242.542 22.9747 250.55 27.3848 254.612 36.9014Z" fill="#0C0B31"/>
<path d="M241.614 66.9209C239.254 67.7333 236.701 67.9267 234.341 67.1917C229.041 65.5669 227.145 60.7699 226.643 58.913C226.526 58.4101 226.488 57.5977 226.488 57.5977C226.797 58.4101 228.77 63.826 233.683 65.1027C237.204 65.9924 241.885 64.8706 246.295 61.7757C251.363 58.178 254.419 52.2978 255.386 44.2512L257.823 44.5607C256.778 53.3423 253.374 59.8028 247.687 63.7874C246.488 64.6384 244.283 65.9924 241.614 66.9209Z" fill="#0C0B31"/>
<path d="M255.696 40.3054C256.624 42.2397 259.835 46.8433 260.763 49.4352C262.62 54.5417 261.963 58.1007 261.731 62.3561C261.421 67.7334 258.984 72.8399 255.463 76.9018C252.137 80.7317 247.881 83.6331 243.316 85.8769C242.697 86.1863 242.001 86.2637 241.343 86.109L241.189 86.0703C240.802 85.9542 240.415 85.7221 240.183 85.374C239.951 85.0258 239.796 84.6389 239.835 84.2134C239.989 80.3448 241.807 76.9405 244.09 73.6523C246.604 70.0545 249.545 66.6502 251.208 62.5495C253.568 56.6694 251.982 45.4893 255.696 40.3054Z" fill="#0C0B31"/>
<path d="M236.546 90.3645C232.948 90.3645 229.428 91.6411 226.681 94.0009C227.029 94.4652 227.377 94.9294 227.764 95.3936C229.273 94.233 230.937 93.3433 232.755 92.7243C231.169 93.7301 229.776 94.9681 228.538 96.3994C230.008 98.3337 231.594 100.152 233.296 101.893C236.004 98.7206 237.668 94.7746 238.055 90.5966C237.552 90.5579 236.971 90.3645 236.546 90.3645Z" fill="#0C0B31"/>
<path d="M239.215 84.9873L236.159 89.3974C235.85 89.8616 235.966 90.4419 236.43 90.7514L237.823 91.7185C238.287 92.028 238.867 91.912 239.177 91.4477L242.233 87.0376C242.542 86.5734 242.426 85.9931 241.962 85.6836L240.569 84.7165C240.144 84.4457 239.525 84.5617 239.215 84.9873Z" fill="#3CB4E5"/>
<path d="M335.388 183.171H335.311L295.658 181.662C290.784 181.469 286.18 179.535 282.66 176.208L280.184 173.887C279.836 173.538 279.604 173.074 279.604 172.571C279.604 172.068 279.758 171.565 280.106 171.217C280.261 171.024 280.493 170.908 280.725 170.792C280.958 170.676 281.19 170.637 281.46 170.637C281.693 170.637 281.963 170.676 282.195 170.753C282.428 170.83 282.66 170.985 282.814 171.14L285.29 173.461C288.153 176.169 291.905 177.755 295.851 177.871L335.543 179.38C335.775 179.38 336.046 179.457 336.278 179.535C336.51 179.651 336.703 179.805 336.897 179.96C337.051 180.154 337.206 180.347 337.283 180.579C337.361 180.811 337.4 181.043 337.4 181.314C337.361 181.817 337.167 182.281 336.819 182.591C336.355 182.978 335.891 183.171 335.388 183.171Z" fill="#0C0B31"/>
<path d="M335.388 184.293H335.31L295.58 182.784C290.435 182.591 285.561 180.54 281.847 177.02L279.371 174.699C278.791 174.157 278.443 173.422 278.443 172.61C278.404 171.798 278.713 171.024 279.255 170.482C279.526 170.211 279.835 169.979 280.222 169.825C280.57 169.67 280.957 169.592 281.344 169.554C281.731 169.515 282.118 169.592 282.505 169.747C282.853 169.902 283.201 170.095 283.51 170.366L285.986 172.687C288.656 175.202 292.137 176.672 295.812 176.827L335.504 178.335C335.891 178.335 336.277 178.451 336.626 178.606C336.974 178.761 337.322 178.993 337.593 179.303C337.864 179.573 338.057 179.922 338.212 180.308C338.366 180.695 338.405 181.082 338.405 181.469C338.366 182.243 338.057 182.978 337.477 183.519C336.896 183.983 336.161 184.293 335.388 184.293ZM335.388 183.171V182.088C335.581 182.088 335.775 182.011 335.929 181.856C336.084 181.701 336.161 181.508 336.161 181.314C336.161 181.198 336.161 181.121 336.123 181.005C336.084 180.927 336.045 180.811 335.968 180.734C335.891 180.657 335.813 180.579 335.697 180.54C335.62 180.502 335.504 180.463 335.388 180.463L295.696 178.954C291.48 178.8 287.495 177.136 284.439 174.235L281.963 171.914C281.886 171.836 281.808 171.798 281.692 171.759C281.576 171.72 281.499 171.681 281.383 171.72C281.267 171.72 281.189 171.759 281.073 171.798C280.957 171.836 280.88 171.914 280.803 171.991C280.648 172.146 280.57 172.339 280.57 172.571C280.57 172.765 280.648 172.958 280.803 173.113L283.278 175.434C286.605 178.568 290.977 180.424 295.58 180.579L335.233 182.088L335.388 183.171Z" fill="#0C0B31"/>
<path d="M315 184.679C316.354 183.519 318.907 181.971 320.184 179.805C322.621 175.627 320.725 163.867 320.725 163.867L301.77 150.365C301.77 150.365 295.232 157.948 297.243 162.087C299.797 167.31 300.532 176.826 300.454 179.882C300.377 182.939 300.88 190.676 302.891 191.682C304.903 192.687 306.296 192.455 307.456 190.521C308.656 188.587 308.849 187.155 308.849 187.155C309.081 185.105 309.081 185.105 309.081 185.105C309.081 185.105 312.872 186.459 315 184.679Z" fill="#F58981"/>
<path d="M298.211 155.124C298.791 154.737 299.449 154.466 300.106 154.35C303.704 152.996 307.959 151.178 309.313 151.023C311.789 150.597 314.265 151.178 316.857 150.752C318.172 150.559 319.913 149.94 323.085 150.752C327.573 151.874 329.004 151.797 330.9 153.035C333.298 154.776 335.619 158.683 335.619 164.795C335.619 169.824 334.459 174.196 332.718 176.594C331.325 178.722 326.838 178.567 326.296 178.683C326.296 178.683 325.523 179.998 323.472 182.745C321.847 184.911 317.631 184.022 317.244 182.939C316.47 183.093 302.543 182.668 302.195 181.662C299.565 176.671 299.913 169.012 298.133 163.751C297.36 161.429 295.193 159.843 292.717 159.843L293.878 154.853C293.917 154.814 297.63 155.511 298.211 155.124Z" fill="#F58981"/>
<path d="M234.611 29.1639C229.234 28.0033 225.714 30.6726 225.056 37.6747C224.399 44.6768 220.801 48.3132 220.801 48.3132L224.012 48.0424L228.306 37.1331C228.344 37.0944 228.847 31.0982 234.611 29.1639Z" fill="#0C0B31"/>
<path d="M228.616 48.4293C228.346 47.0366 229.042 45.76 230.203 45.6053C237.669 44.7155 240.841 42.7812 242.891 44.1352C244.826 45.5279 241.653 51.3694 235.038 52.7234C230.667 53.5745 229.197 51.2533 228.616 48.4293Z" fill="white"/>
<path d="M279.332 133.344C288.926 158.799 307.534 168.586 307.534 168.586C307.534 168.586 327.302 165.839 319.449 159.379C311.596 152.919 304.246 125.8 304.246 125.8C301.615 117.715 292.717 108.392 292.717 108.392L292.214 108.508C281.189 110.829 274.883 122.628 279.216 133.034C279.216 133.15 279.294 133.228 279.332 133.344Z" fill="#F58981"/>
<path d="M281.963 145.762C281.073 139.34 287.417 133.15 296.121 131.951C304.826 130.752 312.64 134.969 313.53 141.429C313.569 141.584 313.569 141.738 313.569 141.893L317.437 141.081C317.166 138.179 315.812 135.471 313.685 133.228L313.607 133.15L313.53 133.073C300.493 119.843 294.303 105.142 289.313 89.4358C284.593 93.7299 276.933 85.7994 276.16 93.962C274.612 109.978 272.833 126.264 278.287 144.988C278.365 145.259 278.442 145.568 278.52 145.839V145.878C278.906 147 279.409 148.044 280.106 149.011L282.814 148.392C282.388 147.58 282.117 146.69 281.963 145.762Z" fill="white"/>
<path d="M180.063 153.559C188.682 156.153 197.124 153.406 198.92 147.425C200.715 141.443 195.185 134.49 186.566 131.896C177.948 129.302 169.506 132.049 167.71 138.031C165.914 144.013 171.445 150.965 180.063 153.559Z" fill="#0C0B31"/>
<path d="M168.466 164.366C168.466 164.366 182.08 163.057 198.25 141.2C197.192 135.807 183.4 127.237 177.348 132.315C165.451 142.3 167.351 145.831 159.491 152.219C150.168 156.281 168.466 164.366 168.466 164.366Z" fill="#F58981"/>
<path d="M178.131 155.124C177.551 154.737 176.893 154.466 176.235 154.35C172.638 152.996 168.382 151.178 167.028 151.023C164.552 150.597 162.077 151.178 159.485 150.752C158.169 150.559 156.428 149.94 153.256 150.752C148.769 151.874 147.337 151.797 145.442 153.035C143.043 154.776 140.722 158.683 140.722 164.795C140.722 169.824 141.883 174.196 143.624 176.594C145.016 178.722 147.299 178.567 147.84 178.683C147.84 178.683 148.846 180.347 149.929 181.082C151.593 182.436 152.328 182.668 153.759 182.9C154.533 183.055 156.119 183.209 156.119 183.209C157.666 184.718 160.142 186.42 164.668 184.757C165.558 184.409 166.255 183.983 166.255 183.983C169.659 184.718 173.76 182.668 174.108 181.662C176.738 176.671 176.39 169.012 178.17 163.751C178.943 161.429 181.11 159.843 183.586 159.843L182.425 154.853C182.425 154.814 178.711 155.511 178.131 155.124Z" fill="#F58981"/>
<path d="M182.841 173.165H183.808C190.113 173.165 195.683 177.304 197.501 183.338L209.375 222.674H233.936V202.561L208.032 165.276C202.346 158.159 194.6 159.821 185.51 159.821L182.841 173.165Z" fill="#0C0B31"/>
<path d="M284.334 173.165H283.368C277.063 173.165 271.493 177.304 269.675 183.338L257.801 222.674H233.24V202.561L258.265 171.115C263.951 163.998 272.576 159.821 281.666 159.821L284.334 173.165Z" fill="#0C0B31"/>
</svg>
